<svg width="162" height="80" viewBox="0 0 162 80" fill="none" xmlns="http://www.w3.org/2000/svg" role="img" aria-label="HMS logo">
  <style>
    .hms-path {
      stroke: #000000;
    }
  </style>
  <path class="hms-path" d="M 14 16 L 14 66" stroke-width="8.5" stroke-linecap="round" />
  <path class="hms-path" d="
    M 14 44
    C 14 30, 18 28, 27 28
    C 36 28, 37 38, 37 48
    L 37 58
    C 37 66, 41 68, 45 68
    C 49 68, 50 64, 50 58
    L 50 46
    C 50 30, 54 28, 63 28
    C 72 28, 73 38, 73 48
    L 73 58
    C 73 66, 77 68, 81 68
    C 85 68, 86 64, 86 58
    L 86 46
    C 86 30, 90 28, 99 28
    C 108 28, 109 38, 109 48
    L 109 58
    C 109 66, 114 68, 119 68
    C 126 68, 134 50, 142 36
    C 145 30, 142 28, 136 28
    C 128 28, 126 34, 132 44
    C 138 54, 148 58, 148 64
    C 148 68, 142 68, 136 65
    " 
    stroke-width="8.5" stroke-linecap="round" stroke-linejoin="round" fill="none" />
</svg>
